{
	"asset":{
		"generator":"Khronos glTF Blender I/O v4.2.57",
		"version":"2.0"
	},
	"scene":0,
	"scenes":[
		{
			"name":"Scene",
			"nodes":[
				0,
				1,
				2,
				3,
				4,
				5
			]
		}
	],
	"nodes":[
		{
			"mesh":0,
			"name":"Cylinder",
			"translation":[
				-0.582176685333252,
				0.19884783029556274,
				0
			]
		},
		{
			"mesh":1,
			"name":"Cylinder.001",
			"translation":[
				0.0008295774459838867,
				0.19884783029556274,
				0
			]
		},
		{
			"mesh":2,
			"name":"Cylinder.002",
			"translation":[
				0.6210365295410156,
				0.19884783029556274,
				0
			]
		},
		{
			"mesh":3,
			"name":"Plane"
		},
		{
			"name":"Wind",
			"rotation":[
				0,
				0,
				-0.3826834261417389,
				0.9238795638084412
			],
			"scale":[
				0.5384159684181213,
				0.5384159684181213,
				0.5384159684181213
			],
			"translation":[
				-1.0611705780029297,
				0.02079957351088524,
				0.29371464252471924
			]
		},
		{
			"mesh":4,
			"name":"Plane.001",
			"translation":[
				0,
				0.19784995913505554,
				0.26155900955200195
			]
		}
	],
	"materials":[
		{
			"doubleSided":true,
			"name":"Material.001",
			"pbrMetallicRoughness":{
				"baseColorTexture":{
					"index":0
				},
				"metallicFactor":0,
				"roughnessFactor":0.5
			}
		},
		{
			"doubleSided":true,
			"name":"Material.002",
			"pbrMetallicRoughness":{
				"metallicFactor":0,
				"roughnessFactor":0.5
			}
		}
	],
	"meshes":[
		{
			"name":"Cylinder.003",
			"primitives":[
				{
					"attributes":{
						"POSITION":0,
						"NORMAL":1,
						"TEXCOORD_0":2
					},
					"indices":3,
					"material":0
				}
			]
		},
		{
			"name":"Cylinder.004",
			"primitives":[
				{
					"attributes":{
						"POSITION":4,
						"NORMAL":5,
						"TEXCOORD_0":6
					},
					"indices":3,
					"material":0
				}
			]
		},
		{
			"name":"Cylinder.005",
			"primitives":[
				{
					"attributes":{
						"POSITION":7,
						"NORMAL":8,
						"TEXCOORD_0":9
					},
					"indices":3,
					"material":0
				}
			]
		},
		{
			"name":"Plane.001",
			"primitives":[
				{
					"attributes":{
						"POSITION":10,
						"NORMAL":11,
						"TEXCOORD_0":12
					},
					"indices":13,
					"material":0
				}
			]
		},
		{
			"name":"Plane.005",
			"primitives":[
				{
					"attributes":{
						"POSITION":14,
						"NORMAL":15,
						"TEXCOORD_0":16
					},
					"indices":17,
					"material":1
				}
			]
		}
	],
	"textures":[
		{
			"sampler":0,
			"source":0
		}
	],
	"images":[
		{
			"mimeType":"image/png",
			"name":"Untitled",
			"uri":"Untitled.png"
		}
	],
	"accessors":[
		{
			"bufferView":0,
			"componentType":5126,
			"count":192,
			"max":[
				0.03905993700027466,
				0.18822675943374634,
				0.03905993700027466
			],
			"min":[
				-0.03905993700027466,
				-0.18822646141052246,
				-0.03905993700027466
			],
			"type":"VEC3"
		},
		{
			"bufferView":1,
			"componentType":5126,
			"count":192,
			"type":"VEC3"
		},
		{
			"bufferView":2,
			"componentType":5126,
			"count":192,
			"type":"VEC2"
		},
		{
			"bufferView":3,
			"componentType":5123,
			"count":372,
			"type":"SCALAR"
		},
		{
			"bufferView":4,
			"componentType":5126,
			"count":192,
			"max":[
				0.03905993700027466,
				0.18822675943374634,
				0.03905993700027466
			],
			"min":[
				-0.03905993700027466,
				-0.18822646141052246,
				-0.03905993700027466
			],
			"type":"VEC3"
		},
		{
			"bufferView":5,
			"componentType":5126,
			"count":192,
			"type":"VEC3"
		},
		{
			"bufferView":6,
			"componentType":5126,
			"count":192,
			"type":"VEC2"
		},
		{
			"bufferView":7,
			"componentType":5126,
			"count":192,
			"max":[
				0.03905993700027466,
				0.18822675943374634,
				0.03905993700027466
			],
			"min":[
				-0.03905993700027466,
				-0.18822646141052246,
				-0.03905993700027466
			],
			"type":"VEC3"
		},
		{
			"bufferView":8,
			"componentType":5126,
			"count":192,
			"type":"VEC3"
		},
		{
			"bufferView":9,
			"componentType":5126,
			"count":192,
			"type":"VEC2"
		},
		{
			"bufferView":10,
			"componentType":5126,
			"count":4,
			"max":[
				1,
				0,
				1
			],
			"min":[
				-1,
				0,
				-1
			],
			"type":"VEC3"
		},
		{
			"bufferView":11,
			"componentType":5126,
			"count":4,
			"type":"VEC3"
		},
		{
			"bufferView":12,
			"componentType":5126,
			"count":4,
			"type":"VEC2"
		},
		{
			"bufferView":13,
			"componentType":5123,
			"count":6,
			"type":"SCALAR"
		},
		{
			"bufferView":14,
			"componentType":5126,
			"count":484,
			"max":[
				0.16566558182239532,
				0,
				0.16566558182239532
			],
			"min":[
				-0.16566558182239532,
				0,
				-0.16566558182239532
			],
			"type":"VEC3"
		},
		{
			"bufferView":15,
			"componentType":5126,
			"count":484,
			"type":"VEC3"
		},
		{
			"bufferView":16,
			"componentType":5126,
			"count":484,
			"type":"VEC2"
		},
		{
			"bufferView":17,
			"componentType":5123,
			"count":2646,
			"type":"SCALAR"
		}
	],
	"bufferViews":[
		{
			"buffer":0,
			"byteLength":2304,
			"byteOffset":0,
			"target":34962
		},
		{
			"buffer":0,
			"byteLength":2304,
			"byteOffset":2304,
			"target":34962
		},
		{
			"buffer":0,
			"byteLength":1536,
			"byteOffset":4608,
			"target":34962
		},
		{
			"buffer":0,
			"byteLength":744,
			"byteOffset":6144,
			"target":34963
		},
		{
			"buffer":0,
			"byteLength":2304,
			"byteOffset":6888,
			"target":34962
		},
		{
			"buffer":0,
			"byteLength":2304,
			"byteOffset":9192,
			"target":34962
		},
		{
			"buffer":0,
			"byteLength":1536,
			"byteOffset":11496,
			"target":34962
		},
		{
			"buffer":0,
			"byteLength":2304,
			"byteOffset":13032,
			"target":34962
		},
		{
			"buffer":0,
			"byteLength":2304,
			"byteOffset":15336,
			"target":34962
		},
		{
			"buffer":0,
			"byteLength":1536,
			"byteOffset":17640,
			"target":34962
		},
		{
			"buffer":0,
			"byteLength":48,
			"byteOffset":19176,
			"target":34962
		},
		{
			"buffer":0,
			"byteLength":48,
			"byteOffset":19224,
			"target":34962
		},
		{
			"buffer":0,
			"byteLength":32,
			"byteOffset":19272,
			"target":34962
		},
		{
			"buffer":0,
			"byteLength":12,
			"byteOffset":19304,
			"target":34963
		},
		{
			"buffer":0,
			"byteLength":5808,
			"byteOffset":19316,
			"target":34962
		},
		{
			"buffer":0,
			"byteLength":5808,
			"byteOffset":25124,
			"target":34962
		},
		{
			"buffer":0,
			"byteLength":3872,
			"byteOffset":30932,
			"target":34962
		},
		{
			"buffer":0,
			"byteLength":5292,
			"byteOffset":34804,
			"target":34963
		}
	],
	"samplers":[
		{
			"magFilter":9729,
			"minFilter":9987
		}
	],
	"buffers":[
		{
			"byteLength":40096,
			"uri":"Banderas.bin"
		}
	]
}
